# xmcd CD database file
# Copyright (C) 1995-1998 Ti Kan
#
# Track frame offsets:
#	150
#	15292
#	35325
#	54432
#	66685
#	87195
#	107790
#	118952
#	131032
#	143567
#
# Disc length: 2060 seconds
#
# Revision: 1
# Processed by: cddbd v1.4b41PL1 Copyright (c) Steve Scherf et al.
# Submitted via: CDex 1.30
#
DISCID=89080a0a
DTITLE=Tom Brumley - In Time...
DYEAR=2000
DGENRE=Country
TTITLE0=In Time
TTITLE1=Sleepwalk
TTITLE2=Forever Loving You
TTITLE3=Free and Easy
TTITLE4=Hank Williams Medley
TTITLE5=Nicole
TTITLE6=Roundhouse
TTITLE7=Steel Guitar Rag
TTITLE8=Travelin'
TTITLE9=Hawaiian Wedding Song
EXTD=\nYEAR: 2000  ID3G:   2
EXTT0=
EXTT1=
EXTT2=
EXTT3=
EXTT4=
EXTT5=
EXTT6=
EXTT7=
EXTT8=
EXTT9=
PLAYORDER=
